<svg width="186" height="21" viewBox="0 0 186 21" fill="none" xmlns="http://www.w3.org/2000/svg">
<path d="M4.332 7.908V15H2.916V7.908H0.372V6.612H6.876V7.908H4.332ZM14.1542 12.396H9.15019C9.18219 12.86 9.39419 13.236 9.78619 13.524C10.1782 13.804 10.6262 13.944 11.1302 13.944C11.9302 13.944 12.5382 13.692 12.9542 13.188L13.7222 14.028C13.0342 14.74 12.1382 15.096 11.0342 15.096C10.1382 15.096 9.37419 14.8 8.74219 14.208C8.11819 13.608 7.80619 12.808 7.80619 11.808C7.80619 10.8 8.12619 10 8.76619 9.408C9.40619 8.816 10.1582 8.52 11.0222 8.52C11.8942 8.52 12.6342 8.784 13.2422 9.312C13.8502 9.832 14.1542 10.552 14.1542 11.472V12.396ZM9.15019 11.34H12.8102C12.8102 10.804 12.6422 10.392 12.3062 10.104C11.9702 9.816 11.5542 9.672 11.0582 9.672C10.5702 9.672 10.1302 9.824 9.73819 10.128C9.34619 10.424 9.15019 10.828 9.15019 11.34ZM18.9802 9.876C18.3162 9.876 17.8162 10.092 17.4802 10.524C17.1442 10.956 16.9762 11.536 16.9762 12.264V15H15.6322V8.616H16.9762V9.9C17.1922 9.5 17.4842 9.172 17.8522 8.916C18.2282 8.66 18.6242 8.528 19.0402 8.52L19.0522 9.876C19.0282 9.876 19.0042 9.876 18.9802 9.876ZM21.7457 11.544V15H20.4017V8.616H21.7457V9.78C21.9377 9.388 22.2257 9.08 22.6097 8.856C23.0017 8.632 23.4217 8.52 23.8697 8.52C24.8777 8.52 25.5617 8.936 25.9217 9.768C26.5537 8.936 27.3417 8.52 28.2857 8.52C29.0057 8.52 29.5857 8.74 30.0257 9.18C30.4737 9.62 30.6977 10.256 30.6977 11.088V15H29.3537V11.496C29.3537 10.32 28.8657 9.732 27.8897 9.732C27.4337 9.732 27.0337 9.88 26.6897 10.176C26.3537 10.464 26.1777 10.888 26.1617 11.448V15H24.8177V11.496C24.8177 10.888 24.7097 10.444 24.4937 10.164C24.2777 9.876 23.9377 9.732 23.4737 9.732C23.0097 9.732 22.6057 9.888 22.2617 10.2C21.9177 10.504 21.7457 10.952 21.7457 11.544ZM37.1138 13.092C37.1138 13.7 36.8938 14.188 36.4538 14.556C36.0138 14.916 35.4498 15.096 34.7617 15.096C34.2978 15.096 33.8138 15.012 33.3098 14.844C32.8138 14.676 32.3738 14.44 31.9897 14.136L32.6378 13.092C33.3818 13.652 34.1018 13.932 34.7978 13.932C35.1018 13.932 35.3418 13.864 35.5178 13.728C35.6938 13.584 35.7818 13.404 35.7818 13.188C35.7818 12.868 35.3578 12.58 34.5098 12.324C34.4458 12.3 34.3978 12.284 34.3658 12.276C33.0378 11.916 32.3738 11.316 32.3738 10.476C32.3738 9.884 32.6018 9.412 33.0578 9.06C33.5218 8.7 34.1218 8.52 34.8578 8.52C35.5938 8.52 36.2898 8.736 36.9458 9.168L36.4418 10.164C35.9218 9.82 35.3578 9.648 34.7498 9.648C34.4298 9.648 34.1698 9.708 33.9698 9.828C33.7698 9.94 33.6698 10.112 33.6698 10.344C33.6698 10.552 33.7738 10.704 33.9818 10.8C34.1258 10.872 34.3258 10.94 34.5818 11.004C34.8458 11.068 35.0778 11.132 35.2778 11.196C35.4778 11.26 35.6698 11.332 35.8538 11.412C36.0458 11.492 36.2498 11.604 36.4658 11.748C36.8978 12.036 37.1138 12.484 37.1138 13.092ZM43.417 13.32C43.801 13.704 44.285 13.896 44.869 13.896C45.453 13.896 45.933 13.704 46.309 13.32C46.693 12.928 46.885 12.424 46.885 11.808C46.885 11.192 46.693 10.692 46.309 10.308C45.933 9.916 45.453 9.72 44.869 9.72C44.285 9.72 43.801 9.916 43.417 10.308C43.041 10.692 42.853 11.192 42.853 11.808C42.853 12.424 43.041 12.928 43.417 13.32ZM47.269 14.148C46.629 14.78 45.829 15.096 44.869 15.096C43.909 15.096 43.109 14.78 42.469 14.148C41.829 13.508 41.509 12.728 41.509 11.808C41.509 10.888 41.829 10.112 42.469 9.48C43.109 8.84 43.909 8.52 44.869 8.52C45.829 8.52 46.629 8.84 47.269 9.48C47.909 10.112 48.229 10.888 48.229 11.808C48.229 12.728 47.909 13.508 47.269 14.148ZM51.3194 8.088V8.616H52.9994V9.696H51.3194V15H49.9754V9.696H49.1714V8.616H49.9754V8.124C49.9754 7.452 50.1754 6.92 50.5754 6.528C50.9834 6.128 51.4714 5.928 52.0394 5.928C52.6154 5.928 53.1394 6.14 53.6114 6.564L53.0594 7.512C52.7954 7.232 52.5194 7.092 52.2314 7.092C51.9434 7.092 51.7194 7.184 51.5594 7.368C51.3994 7.544 51.3194 7.784 51.3194 8.088ZM59.6613 13.08C60.0453 13.528 60.5653 13.752 61.2213 13.752C61.8773 13.752 62.3973 13.528 62.7813 13.08C63.1653 12.632 63.3573 12.024 63.3573 11.256V6.612H64.7733V11.316C64.7733 12.524 64.4413 13.456 63.7773 14.112C63.1133 14.76 62.2613 15.084 61.2213 15.084C60.1813 15.084 59.3293 14.76 58.6653 14.112C58.0013 13.456 57.6693 12.524 57.6693 11.316V6.612H59.0853V11.256C59.0853 12.024 59.2773 12.632 59.6613 13.08ZM71.1919 13.092C71.1919 13.7 70.9719 14.188 70.5319 14.556C70.0919 14.916 69.5279 15.096 68.8399 15.096C68.3759 15.096 67.8919 15.012 67.3879 14.844C66.8919 14.676 66.4519 14.44 66.0679 14.136L66.7159 13.092C67.4599 13.652 68.1799 13.932 68.8759 13.932C69.1799 13.932 69.4199 13.864 69.5959 13.728C69.7719 13.584 69.8599 13.404 69.8599 13.188C69.8599 12.868 69.4359 12.58 68.5879 12.324C68.5239 12.3 68.4759 12.284 68.4439 12.276C67.1159 11.916 66.4519 11.316 66.4519 10.476C66.4519 9.884 66.6799 9.412 67.1359 9.06C67.5999 8.7 68.1999 8.52 68.9359 8.52C69.6719 8.52 70.3679 8.736 71.0239 9.168L70.5199 10.164C69.9999 9.82 69.4359 9.648 68.8279 9.648C68.5079 9.648 68.2479 9.708 68.0479 9.828C67.8479 9.94 67.7479 10.112 67.7479 10.344C67.7479 10.552 67.8519 10.704 68.0599 10.8C68.2039 10.872 68.4039 10.94 68.6599 11.004C68.9239 11.068 69.1559 11.132 69.3559 11.196C69.5559 11.26 69.7479 11.332 69.9319 11.412C70.1239 11.492 70.3279 11.604 70.5439 11.748C70.9759 12.036 71.1919 12.484 71.1919 13.092ZM78.6542 12.396H73.6502C73.6822 12.86 73.8942 13.236 74.2862 13.524C74.6782 13.804 75.1262 13.944 75.6302 13.944C76.4302 13.944 77.0382 13.692 77.4542 13.188L78.2222 14.028C77.5342 14.74 76.6382 15.096 75.5342 15.096C74.6382 15.096 73.8742 14.8 73.2422 14.208C72.6182 13.608 72.3062 12.808 72.3062 11.808C72.3062 10.8 72.6262 10 73.2662 9.408C73.9062 8.816 74.6582 8.52 75.5222 8.52C76.3942 8.52 77.1342 8.784 77.7422 9.312C78.3502 9.832 78.6542 10.552 78.6542 11.472V12.396ZM73.6502 11.34H77.3102C77.3102 10.804 77.1422 10.392 76.8062 10.104C76.4702 9.816 76.0542 9.672 75.5582 9.672C75.0702 9.672 74.6302 9.824 74.2382 10.128C73.8462 10.424 73.6502 10.828 73.6502 11.34ZM106.255 6.612C107.527 6.612 108.455 6.856 109.039 7.344C109.623 7.832 109.915 8.584 109.915 9.6C109.915 10.616 109.615 11.36 109.015 11.832C108.423 12.304 107.511 12.54 106.279 12.54H104.791V15H103.375V6.612H106.255ZM106.435 11.256C107.219 11.256 107.751 11.108 108.031 10.812C108.319 10.508 108.463 10.068 108.463 9.492C108.463 8.908 108.283 8.496 107.923 8.256C107.563 8.016 106.999 7.896 106.231 7.896H104.791V11.256H106.435ZM114.734 9.876C114.07 9.876 113.57 10.092 113.234 10.524C112.898 10.956 112.73 11.536 112.73 12.264V15H111.386V8.616H112.73V9.9C112.946 9.5 113.238 9.172 113.606 8.916C113.982 8.66 114.378 8.528 114.794 8.52L114.806 9.876C114.782 9.876 114.758 9.876 114.734 9.876ZM117.5 15H116.156V8.616H117.5V15ZM116.24 7.344C116.072 7.176 115.988 6.976 115.988 6.744C115.988 6.512 116.072 6.312 116.24 6.144C116.408 5.976 116.608 5.892 116.84 5.892C117.072 5.892 117.272 5.976 117.44 6.144C117.608 6.312 117.692 6.512 117.692 6.744C117.692 6.976 117.608 7.176 117.44 7.344C117.272 7.512 117.072 7.596 116.84 7.596C116.608 7.596 116.408 7.512 116.24 7.344ZM121.141 15L118.573 8.616H119.965L121.909 13.44L123.853 8.616H125.245L122.677 15H121.141ZM131.406 15H130.182V14.148C129.654 14.78 128.946 15.096 128.058 15.096C127.394 15.096 126.842 14.908 126.402 14.532C125.97 14.156 125.754 13.656 125.754 13.032C125.754 12.4 125.986 11.928 126.45 11.616C126.914 11.304 127.542 11.148 128.334 11.148H130.074V10.908C130.074 10.06 129.602 9.636 128.658 9.636C128.066 9.636 127.45 9.852 126.81 10.284L126.21 9.444C126.986 8.828 127.866 8.52 128.85 8.52C129.602 8.52 130.214 8.712 130.686 9.096C131.166 9.472 131.406 10.068 131.406 10.884V15ZM130.062 12.624V12.084H128.55C127.582 12.084 127.098 12.388 127.098 12.996C127.098 13.308 127.218 13.548 127.458 13.716C127.698 13.876 128.03 13.956 128.454 13.956C128.886 13.956 129.262 13.836 129.582 13.596C129.902 13.356 130.062 13.032 130.062 12.624ZM136.109 15.096C135.221 15.096 134.457 14.796 133.817 14.196C133.177 13.588 132.857 12.796 132.857 11.82C132.857 10.844 133.189 10.052 133.853 9.444C134.525 8.828 135.341 8.52 136.301 8.52C137.261 8.52 138.073 8.852 138.737 9.516L137.945 10.488C137.393 10.008 136.837 9.768 136.277 9.768C135.717 9.768 135.229 9.956 134.813 10.332C134.405 10.7 134.201 11.18 134.201 11.772C134.201 12.356 134.405 12.852 134.813 13.26C135.221 13.668 135.721 13.872 136.313 13.872C136.913 13.872 137.477 13.6 138.005 13.056L138.797 13.92C138.021 14.704 137.125 15.096 136.109 15.096ZM140.995 17.544C140.411 17.544 139.883 17.332 139.411 16.908L140.023 15.816C140.303 16.08 140.591 16.212 140.887 16.212C141.191 16.212 141.435 16.104 141.619 15.888C141.811 15.672 141.907 15.436 141.907 15.18C141.907 15.068 141.047 12.88 139.327 8.616H140.767L142.675 13.32L144.583 8.616H146.023L142.927 16.2C142.743 16.616 142.479 16.944 142.135 17.184C141.791 17.424 141.411 17.544 140.995 17.544ZM153.446 6.612C154.718 6.612 155.646 6.856 156.23 7.344C156.814 7.832 157.106 8.584 157.106 9.6C157.106 10.616 156.806 11.36 156.206 11.832C155.614 12.304 154.702 12.54 153.47 12.54H151.982V15H150.566V6.612H153.446ZM153.626 11.256C154.41 11.256 154.942 11.108 155.222 10.812C155.51 10.508 155.654 10.068 155.654 9.492C155.654 8.908 155.474 8.496 155.114 8.256C154.754 8.016 154.19 7.896 153.422 7.896H151.982V11.256H153.626ZM159.995 13.32C160.379 13.704 160.863 13.896 161.447 13.896C162.031 13.896 162.511 13.704 162.887 13.32C163.271 12.928 163.463 12.424 163.463 11.808C163.463 11.192 163.271 10.692 162.887 10.308C162.511 9.916 162.031 9.72 161.447 9.72C160.863 9.72 160.379 9.916 159.995 10.308C159.619 10.692 159.431 11.192 159.431 11.808C159.431 12.424 159.619 12.928 159.995 13.32ZM163.847 14.148C163.207 14.78 162.407 15.096 161.447 15.096C160.487 15.096 159.687 14.78 159.047 14.148C158.407 13.508 158.087 12.728 158.087 11.808C158.087 10.888 158.407 10.112 159.047 9.48C159.687 8.84 160.487 8.52 161.447 8.52C162.407 8.52 163.207 8.84 163.847 9.48C164.487 10.112 164.807 10.888 164.807 11.808C164.807 12.728 164.487 13.508 163.847 14.148ZM167.679 15H166.335V6.096H167.679V15ZM170.972 15H169.628V8.616H170.972V15ZM169.712 7.344C169.544 7.176 169.46 6.976 169.46 6.744C169.46 6.512 169.544 6.312 169.712 6.144C169.88 5.976 170.08 5.892 170.312 5.892C170.544 5.892 170.744 5.976 170.912 6.144C171.08 6.312 171.164 6.512 171.164 6.744C171.164 6.976 171.08 7.176 170.912 7.344C170.744 7.512 170.544 7.596 170.312 7.596C170.08 7.596 169.88 7.512 169.712 7.344ZM175.753 15.096C174.865 15.096 174.101 14.796 173.461 14.196C172.821 13.588 172.501 12.796 172.501 11.82C172.501 10.844 172.833 10.052 173.497 9.444C174.169 8.828 174.985 8.52 175.945 8.52C176.905 8.52 177.717 8.852 178.381 9.516L177.589 10.488C177.037 10.008 176.481 9.768 175.921 9.768C175.361 9.768 174.873 9.956 174.457 10.332C174.049 10.7 173.845 11.18 173.845 11.772C173.845 12.356 174.049 12.852 174.457 13.26C174.865 13.668 175.365 13.872 175.957 13.872C176.557 13.872 177.121 13.6 177.649 13.056L178.441 13.92C177.665 14.704 176.769 15.096 175.753 15.096ZM180.639 17.544C180.055 17.544 179.527 17.332 179.055 16.908L179.667 15.816C179.947 16.08 180.235 16.212 180.531 16.212C180.835 16.212 181.079 16.104 181.263 15.888C181.455 15.672 181.551 15.436 181.551 15.18C181.551 15.068 180.691 12.88 178.971 8.616H180.411L182.319 13.32L184.227 8.616H185.667L182.571 16.2C182.387 16.616 182.123 16.944 181.779 17.184C181.435 17.424 181.055 17.544 180.639 17.544Z" fill="white"/>
<line x1="92" y1="2" x2="92" y2="19" stroke="#D434FE" stroke-width="2"/>
</svg>
